<?xml version="1.0" standalone="no"?>
<!DOCTYPE svg PUBLIC "-//W3C//DTD SVG 20010904//EN"
 "http://www.w3.org/TR/2001/REC-SVG-20010904/DTD/svg10.dtd">
<svg version="1.0" xmlns="http://www.w3.org/2000/svg"
 width="1820.000000pt" height="1214.000000pt" viewBox="0 0 1820.000000 1214.000000"
 preserveAspectRatio="xMidYMid meet">

<g transform="translate(0.000000,1214.000000) scale(0.100000,-0.100000)"
fill="#000000" stroke="none">
<path d="M8950 9634 c-361 -70 -643 -329 -731 -673 -16 -60 -43 -360 -49 -539
0 -1 -138 -2 -306 -2 -168 1 -307 0 -309 -2 -1 -2 -8 -88 -14 -193 -7 -104
-14 -217 -16 -250 -3 -33 -9 -132 -15 -220 -35 -549 -52 -804 -65 -990 -8
-115 -22 -327 -30 -470 -21 -337 -19 -327 -53 -319 -251 55 -393 117 -476 207
-49 53 -66 93 -66 154 0 105 104 240 269 350 116 77 118 80 26 38 -444 -201
-683 -473 -635 -724 31 -162 161 -301 392 -417 234 -118 490 -172 973 -206
322 -22 1174 -13 1540 17 33 3 87 8 120 10 80 7 55 -8 -78 -46 -462 -132
-1239 -193 -2142 -169 -209 6 -436 15 -505 19 -69 5 -126 7 -128 6 -8 -6 357
-119 504 -156 93 -23 170 -42 171 -43 1 0 -5 -111 -13 -246 -7 -135 -13 -257
-14 -272 l0 -28 1801 0 1801 0 -6 117 c-4 65 -9 138 -11 163 -3 25 -12 160
-20 300 -9 140 -27 428 -40 639 -14 212 -24 386 -22 387 2 2 88 24 193 49 104
25 206 50 227 56 l38 10 -6 82 c-3 45 -8 105 -10 132 -2 28 -7 106 -11 173 -6
119 -7 124 -28 119 -11 -2 -138 -39 -281 -81 -392 -115 -690 -177 -1210 -250
-402 -56 -898 -108 -1018 -105 l-52 1 55 10 c30 5 165 27 300 49 494 81 1028
196 1350 289 264 77 389 132 564 248 369 245 522 497 450 743 -45 152 -217
321 -459 449 l-80 42 45 -38 c148 -125 206 -231 198 -357 -5 -88 -44 -161
-131 -251 -66 -66 -203 -174 -211 -165 -2 2 -13 150 -25 329 -31 466 -31 469
-36 530 -3 30 -7 105 -11 165 -3 61 -7 111 -8 112 -1 1 -140 3 -309 4 -169 0
-307 2 -307 2 0 1 -7 106 -15 232 -16 255 -32 336 -89 461 -88 189 -231 335
-421 429 -151 75 -201 86 -380 90 -82 2 -161 1 -175 -1z m331 -268 c182 -58
320 -173 404 -337 58 -114 69 -184 87 -549 l2 -55 -674 0 -674 0 2 55 c17 353
29 435 79 534 91 183 240 304 433 356 61 16 96 19 185 16 61 -3 131 -11 156
-20z m-1125 -1198 c-3 -18 -6 -75 -7 -126 -3 -106 10 -133 74 -165 47 -24 98
-14 137 25 32 32 36 49 46 193 l6 99 39 -41 c145 -156 32 -407 -183 -405 -216
1 -320 270 -162 418 45 43 58 43 50 2z m1643 -138 c1 -80 24 -127 75 -153 45
-24 93 -17 135 19 41 34 48 70 41 194 -4 58 -5 107 -4 109 10 12 76 -56 98
-101 35 -71 35 -145 0 -216 -114 -229 -458 -148 -457 108 0 65 18 110 64 166
l34 41 7 -51 c3 -28 6 -80 7 -116z"/>
<path d="M7390 3435 l0 -455 75 0 75 0 0 455 0 455 -75 0 -75 0 0 -455z"/>
<path d="M10450 3435 l0 -455 44 0 44 0 4 218 c3 181 6 222 20 248 73 133 270
137 334 7 16 -32 19 -70 22 -255 l4 -218 45 0 44 0 -3 243 c-3 238 -4 244 -29
292 -33 66 -87 103 -170 117 -91 16 -161 -6 -223 -68 l-46 -46 0 186 0 186
-45 0 -45 0 0 -455z"/>
<path d="M7740 3810 l0 -70 85 0 85 0 0 70 0 70 -85 0 -85 0 0 -70z"/>
<path d="M5874 3854 c-204 -41 -355 -230 -354 -442 1 -280 244 -486 525 -445
314 45 483 375 339 662 -42 83 -112 152 -197 191 -105 50 -192 59 -313 34z
m233 -160 c176 -84 223 -342 89 -491 -80 -89 -182 -119 -295 -88 -180 51 -270
263 -187 441 71 151 240 210 393 138z"/>
<path d="M9868 3858 c-139 -18 -228 -110 -228 -235 1 -119 59 -184 207 -228
46 -14 120 -36 166 -50 103 -30 138 -62 144 -132 4 -39 0 -55 -19 -83 -37 -55
-88 -75 -188 -75 -95 1 -165 26 -241 86 l-40 32 -30 -29 c-16 -15 -29 -33 -29
-39 0 -6 20 -26 45 -44 139 -100 346 -127 475 -61 49 25 104 89 118 139 26 84
5 178 -49 228 -35 32 -124 70 -220 93 -184 45 -230 77 -237 163 -4 46 -1 57
23 85 43 52 80 66 165 65 83 0 138 -17 205 -62 l43 -29 28 40 c23 33 25 41 13
49 -114 76 -226 104 -351 87z"/>
<path d="M6882 3639 c-18 -5 -53 -29 -77 -53 l-45 -43 0 49 0 48 -75 0 -75 0
0 -330 0 -330 75 0 75 0 0 208 c0 177 3 212 18 242 41 83 150 107 216 49 20
-17 40 -47 46 -67 5 -20 10 -126 10 -234 l0 -198 75 0 75 0 0 233 c0 274 -8
316 -71 376 -56 56 -157 76 -247 50z"/>
<path d="M8361 3630 c-24 -11 -59 -36 -77 -56 l-34 -35 0 50 0 51 -75 0 -75 0
0 -330 0 -330 74 0 75 0 3 213 c3 235 8 254 67 294 40 27 107 31 152 7 59 -30
69 -73 69 -306 l0 -208 76 0 75 0 -3 258 c-3 253 -3 258 -28 302 -14 24 -44
57 -67 74 -57 40 -165 47 -232 16z"/>
<path d="M9060 3633 c-97 -33 -186 -132 -210 -234 -17 -69 -8 -183 17 -241 30
-65 95 -133 162 -165 49 -24 68 -27 151 -28 85 0 101 3 152 29 31 16 71 43 88
61 l31 32 -46 37 -45 37 -42 -30 c-56 -40 -125 -53 -190 -36 -68 17 -110 60
-132 132 l-7 23 243 2 243 3 -2 70 c-5 193 -133 326 -312 325 -31 -1 -76 -8
-101 -17z m158 -118 c54 -23 81 -53 97 -109 8 -27 15 -51 15 -53 0 -2 -77 -3
-171 -3 l-171 0 7 33 c11 53 52 107 98 128 51 23 77 24 125 4z"/>
<path d="M7750 3310 l0 -330 75 0 75 0 0 330 0 330 -75 0 -75 0 0 -330z"/>
<path d="M11429 3627 c-154 -44 -249 -169 -249 -327 0 -227 205 -385 423 -326
112 30 208 127 238 241 18 64 6 171 -25 237 -65 136 -241 216 -387 175z m188
-102 c189 -95 172 -404 -26 -464 -161 -48 -311 65 -311 235 0 77 16 126 59
175 69 81 180 102 278 54z"/>
<path d="M12300 3626 c-60 -16 -113 -49 -150 -94 l-30 -37 0 63 0 62 -45 0
-45 0 0 -420 0 -420 45 0 45 0 0 156 0 157 49 -46 c67 -63 110 -80 201 -80
124 -1 216 57 271 169 99 202 0 442 -203 492 -57 15 -80 14 -138 -2z m124 -88
c96 -29 163 -143 154 -262 -13 -162 -142 -257 -292 -215 -55 15 -131 89 -150
146 -35 103 -15 194 60 270 69 70 137 88 228 61z"/>
<path d="M6877 2763 c-4 -3 -7 -64 -7 -135 0 -107 2 -128 15 -128 12 0 15 13
15 60 l0 60 80 0 80 0 0 -60 c0 -47 3 -60 15 -60 13 0 15 19 13 132 -2 94 -7
133 -15 136 -10 3 -13 -13 -13 -57 l0 -61 -80 0 -80 0 0 60 c0 55 -6 70 -23
53z"/>
<path d="M7333 2758 c-11 -15 -113 -242 -113 -252 0 -3 6 -6 13 -6 7 0 21 16
30 35 l17 35 70 0 71 0 15 -35 c8 -19 21 -35 29 -35 8 0 15 3 15 8 -1 18 -117
256 -126 259 -6 2 -15 -2 -21 -9z m49 -97 l26 -60 -22 -3 c-11 -2 -37 -1 -57
0 l-37 4 26 59 c14 32 28 59 31 59 4 0 18 -27 33 -59z"/>
<path d="M7610 2636 c0 -114 2 -136 15 -136 11 0 15 12 15 45 l0 45 40 0 c109
0 166 77 108 145 -20 23 -33 27 -100 32 l-78 6 0 -137z m135 94 c30 -11 39
-31 31 -63 -7 -29 -44 -47 -96 -47 l-40 0 0 60 0 60 39 0 c22 0 51 -4 66 -10z"/>
<path d="M7940 2636 c0 -114 2 -136 15 -136 11 0 15 12 15 45 l0 45 43 0 c84
0 139 51 123 113 -10 40 -48 59 -126 65 l-70 5 0 -137z m134 93 c29 -14 38
-32 30 -64 -7 -28 -42 -45 -94 -45 l-40 0 0 60 0 60 40 0 c21 0 50 -5 64 -11z"/>
<path d="M8240 2765 c0 -3 25 -41 55 -84 49 -70 55 -84 55 -130 0 -39 4 -51
15 -51 11 0 15 13 15 53 0 47 6 61 55 135 43 64 51 82 38 82 -11 0 -36 -27
-63 -66 l-45 -66 -20 25 c-11 14 -32 44 -47 66 -15 23 -35 41 -43 41 -8 0 -15
-2 -15 -5z"/>
<path d="M8833 2759 c-12 -6 -27 -25 -34 -41 -17 -43 12 -78 81 -98 60 -17 81
-40 64 -67 -20 -33 -58 -38 -103 -16 -25 12 -44 17 -47 11 -12 -20 26 -41 81
-46 48 -4 59 -1 80 18 50 47 28 103 -50 125 -72 21 -91 40 -72 69 17 25 58 32
98 15 35 -14 49 -5 27 17 -20 20 -96 28 -125 13z"/>
<path d="M9120 2635 c0 -113 2 -135 15 -135 12 0 15 13 15 60 l0 60 75 0 75 0
0 -60 c0 -47 3 -60 15 -60 13 0 15 22 15 135 0 113 -2 135 -15 135 -12 0 -15
-13 -15 -60 l0 -60 -75 0 -75 0 0 60 c0 47 -3 60 -15 60 -13 0 -15 -22 -15
-135z"/>
<path d="M9541 2752 c-85 -46 -93 -170 -16 -230 38 -30 121 -31 159 -1 133
104 5 310 -143 231z m128 -38 c59 -49 48 -144 -20 -180 -45 -23 -102 -5 -130
39 -63 101 60 217 150 141z"/>
<path d="M9880 2636 c0 -114 2 -136 15 -136 11 0 15 12 15 45 l0 45 43 0 c83
0 139 52 123 115 -9 37 -46 55 -125 62 l-71 6 0 -137z m133 93 c44 -24 48 -49
12 -84 -18 -19 -35 -25 -70 -25 l-45 0 0 60 0 60 41 0 c22 0 50 -5 62 -11z"/>
<path d="M10210 2636 c0 -114 2 -136 15 -136 11 0 15 12 15 45 0 44 1 45 33
45 92 0 146 46 132 111 -9 42 -42 59 -124 66 l-71 6 0 -137z m135 92 c14 -6
25 -15 25 -19 0 -4 3 -14 6 -23 3 -9 -5 -26 -20 -41 -19 -19 -35 -25 -71 -25
l-45 0 0 60 0 60 40 0 c21 0 51 -5 65 -12z"/>
<path d="M10540 2635 c0 -113 2 -135 15 -135 13 0 15 22 15 135 0 113 -2 135
-15 135 -13 0 -15 -22 -15 -135z"/>
<path d="M10720 2635 c0 -112 3 -135 15 -135 11 0 15 21 17 106 l3 106 83
-106 c46 -58 90 -106 98 -106 12 0 14 22 12 132 -2 92 -7 133 -15 135 -9 3
-13 -24 -15 -104 l-3 -108 -83 108 c-46 59 -90 107 -98 107 -11 0 -14 -24 -14
-135z"/>
<path d="M11154 2751 c-47 -29 -64 -59 -64 -114 0 -92 44 -137 133 -137 78 0
107 25 107 91 l0 49 -55 0 c-62 0 -75 -17 -17 -22 34 -3 37 -6 40 -36 3 -29 0
-34 -33 -48 -46 -19 -85 -11 -119 23 -21 21 -26 35 -26 75 0 41 5 54 29 79 34
33 91 40 128 14 17 -12 23 -12 32 -1 9 11 4 17 -23 30 -45 21 -94 20 -132 -3z"/>
</g>
</svg>
